<?xml version="1.0" encoding="UTF-8"?>
<svg xmlns="http://www.w3.org/2000/svg" xmlns:xlink="http://www.w3.org/1999/xlink" width="26pt" height="26pt" viewBox="0 0 26 26" version="1.1">
<defs>
<linearGradient id="linear0" gradientUnits="userSpaceOnUse" x1="-1.347" y1="513.347" x2="510.699" y2="1.301" gradientTransform="matrix(0.0507812,0,0,0.0507812,0,0)">
<stop offset="0" style="stop-color:rgb(6.666667%,6.666667%,6.666667%);stop-opacity:1;"/>
<stop offset="1" style="stop-color:rgb(19.607843%,19.607843%,19.607843%);stop-opacity:1;"/>
</linearGradient>
<linearGradient id="linear1" gradientUnits="userSpaceOnUse" x1="153.06" y1="376.967" x2="368.112" y2="161.914" gradientTransform="matrix(0.0507812,0,0,0.0507812,0,0)">
<stop offset="0" style="stop-color:rgb(70.980392%,1.960784%,23.529412%);stop-opacity:1;"/>
<stop offset="0.233" style="stop-color:rgb(78.823529%,1.568627%,25.490196%);stop-opacity:1;"/>
<stop offset="0.737" style="stop-color:rgb(94.117647%,0.392157%,29.411765%);stop-opacity:1;"/>
<stop offset="1" style="stop-color:rgb(100%,0%,30.980392%);stop-opacity:1;"/>
</linearGradient>
<linearGradient id="linear2" gradientUnits="userSpaceOnUse" x1="136.192" y1="366.084" x2="362.722" y2="139.555" gradientTransform="matrix(0.0507812,0,0,0.0507812,0,0)">
<stop offset="0" style="stop-color:rgb(0%,69.803922%,78.823529%);stop-opacity:1;"/>
<stop offset="0.283" style="stop-color:rgb(0%,78.431373%,83.137255%);stop-opacity:1;"/>
<stop offset="0.741" style="stop-color:rgb(0%,90.196078%,89.411765%);stop-opacity:1;"/>
<stop offset="1" style="stop-color:rgb(0%,94.509804%,91.764706%);stop-opacity:1;"/>
</linearGradient>
<linearGradient id="linear3" gradientUnits="userSpaceOnUse" x1="9.279" y1="506.873" x2="510.704" y2="5.448" gradientTransform="matrix(0.0507812,0,0,0.0507812,0,0)">
<stop offset="0" style="stop-color:rgb(86.666667%,89.019608%,89.411765%);stop-opacity:1;"/>
<stop offset="1" style="stop-color:rgb(98.823529%,96.862745%,96.862745%);stop-opacity:1;"/>
</linearGradient>
</defs>
<g id="surface1">
<path style=" stroke:none;fill-rule:nonzero;fill:url(#linear0);" d="M 13 0 C 5.820312 0 0 5.820312 0 13 C 0 20.179688 5.820312 26 13 26 C 20.179688 26 26 20.179688 26 13 C 26 5.820312 20.179688 0 13 0 Z M 13 0 "/>
<path style=" stroke:none;fill-rule:nonzero;fill:url(#linear1);" d="M 19.992188 9.523438 C 17.964844 9.523438 16.320312 7.878906 16.320312 5.847656 L 13.695312 5.847656 L 13.695312 16.128906 C 13.691406 17.089844 13.078125 17.941406 12.164062 18.246094 C 11.25 18.546875 10.25 18.234375 9.671875 17.460938 C 9.097656 16.691406 9.078125 15.640625 9.628906 14.851562 C 10.175781 14.0625 11.167969 13.714844 12.09375 13.984375 L 12.09375 11.433594 C 10.136719 11.167969 8.21875 12.144531 7.285156 13.886719 C 6.351562 15.625 6.59375 17.761719 7.890625 19.246094 C 9.191406 20.734375 11.277344 21.257812 13.125 20.566406 C 14.972656 19.871094 16.195312 18.101562 16.195312 16.128906 L 16.273438 10.933594 C 17.351562 11.722656 18.65625 12.148438 19.992188 12.148438 Z M 19.992188 9.523438 "/>
<path style=" stroke:none;fill-rule:nonzero;fill:url(#linear2);" d="M 19.300781 8.808594 C 17.269531 8.808594 15.625 7.164062 15.625 5.132812 L 13 5.132812 L 13 15.414062 C 13 16.375 12.382812 17.226562 11.46875 17.53125 C 10.558594 17.832031 9.554688 17.519531 8.980469 16.746094 C 8.402344 15.976562 8.386719 14.925781 8.933594 14.136719 C 9.484375 13.347656 10.476562 13 11.398438 13.269531 L 11.398438 10.71875 C 9.441406 10.453125 7.527344 11.429688 6.589844 13.167969 C 5.65625 14.910156 5.898438 17.046875 7.199219 18.53125 C 8.496094 20.019531 10.582031 20.542969 12.429688 19.847656 C 14.277344 19.15625 15.503906 17.386719 15.503906 15.414062 L 15.578125 10.21875 C 16.660156 11.007812 17.960938 11.433594 19.300781 11.433594 Z M 19.300781 8.808594 "/>
<path style=" stroke:none;fill-rule:nonzero;fill:url(#linear3);" d="M 19.300781 9.457031 C 18.390625 9.28125 17.582031 8.773438 17.035156 8.027344 C 16.339844 7.484375 15.867188 6.710938 15.695312 5.847656 L 13.695312 5.847656 L 13.695312 16.128906 C 13.695312 17.132812 13.027344 18.011719 12.058594 18.28125 C 11.09375 18.550781 10.066406 18.144531 9.546875 17.289062 C 8.617188 16.683594 8.273438 15.488281 8.738281 14.480469 C 9.199219 13.472656 10.332031 12.957031 11.398438 13.269531 L 11.398438 11.390625 C 9.597656 11.414062 7.964844 12.457031 7.1875 14.082031 C 6.40625 15.707031 6.617188 17.632812 7.730469 19.050781 C 9.140625 20.230469 11.109375 20.484375 12.773438 19.703125 C 14.4375 18.925781 15.503906 17.253906 15.503906 15.414062 L 15.578125 10.21875 C 16.660156 11.007812 17.960938 11.433594 19.300781 11.433594 Z M 19.300781 9.457031 "/>
</g>
</svg>
